<svg width="12" height="13" viewBox="0 0 12 13" fill="none" xmlns="http://www.w3.org/2000/svg">
<path d="M4.47839 4.9782C4.47839 4.00369 4.47839 3.17911 4.47839 2.35453C4.50338 1.13015 5.0531 0.430508 6.00262 0.505469C7.17702 0.580431 7.50185 1.38003 7.47687 2.42949C7.45188 3.22909 7.47687 4.00369 7.47687 5.00318C8.4014 5.00318 9.30094 5.00318 10.2005 5.00318C11.225 5.00318 11.9496 5.40298 11.9496 6.50242C11.9496 7.57688 11.225 8.00166 10.2005 8.00166C9.32593 8.00166 8.47636 8.00166 7.47687 8.00166C7.47687 8.87622 7.47687 9.65082 7.47687 10.4504C7.47687 11.7997 6.97712 12.4744 6.00262 12.4994C5.00312 12.5244 4.47839 11.7997 4.47839 10.3755C4.47839 9.62584 4.47839 8.9012 4.47839 8.00166C3.50389 8.00166 2.60434 8.02665 1.7048 8.00166C0.605359 7.97667 -0.0692985 7.35199 0.00566342 6.45245C0.0806253 5.40298 0.730295 4.9782 1.67981 4.9782C2.55437 4.9782 3.42892 4.9782 4.47839 4.9782Z" fill="#052C54"/>
</svg>
