<svg width="215" height="36" viewBox="0 0 215 36" fill="none" xmlns="http://www.w3.org/2000/svg">
<path d="M12.2551 14.6769C9.62429 14.6769 7.54736 16.2 7.54736 18C7.54736 19.8 9.62429 21.3231 12.2551 21.3231C14.8858 21.3231 16.9627 19.8 16.9627 18C16.9627 16.2 14.8858 14.6769 12.2551 14.6769Z" fill="url(#paint0_linear_4_1887)"/>
<path d="M25.6858 15.7846C26.1012 15.5077 26.1012 14.8154 25.8243 14.1231C25.5473 13.5692 24.9935 13.2923 24.5781 13.2923C24.4396 13.2923 24.4396 13.2923 24.3012 13.4308C23.8858 13.7077 23.8858 14.4 24.1627 15.0923C24.5781 15.6461 25.2704 16.0615 25.6858 15.7846Z" fill="url(#paint1_linear_4_1887)"/>
<path d="M6.30102 7.75385C10.3164 9.41539 14.0549 9.69231 14.7472 8.16923C15.301 6.78462 12.5318 4.29231 8.51641 2.63077C6.30102 1.66154 4.08564 1.24615 2.56256 1.24615C1.31641 1.24615 0.347176 1.52308 0.208714 2.21539C-0.483593 3.46154 2.28564 5.95385 6.30102 7.75385Z" fill="url(#paint2_linear_4_1887)"/>
<path d="M25.6861 21.8769C26.1015 21.1846 26.1015 20.3538 25.5477 20.2154C25.4092 20.2154 25.4092 20.0769 25.2708 20.0769C24.8554 20.0769 24.44 20.4923 24.0246 20.9077C23.6092 21.6 23.6092 22.4307 24.1631 22.5692C24.5785 22.9846 25.2708 22.5692 25.6861 21.8769Z" fill="url(#paint3_linear_4_1887)"/>
<path d="M20.8398 10.1077C20.1475 9.69229 19.4552 9.55383 18.9014 9.55383C18.2091 9.55383 17.6552 9.83076 17.5167 10.2461C16.9629 11.0769 17.7937 12.4615 19.1783 13.2923C20.5629 14.1231 22.086 14.1231 22.6398 13.1538C22.9167 12.1846 22.2244 10.8 20.8398 10.1077Z" fill="url(#paint4_linear_4_1887)"/>
<path d="M26.9319 24.5077H26.7934C26.378 24.5077 25.5473 25.3385 24.855 26.5846C24.1627 27.9692 23.8857 29.2154 24.3011 29.4923C24.7165 29.7692 25.6857 28.8 26.378 27.4154C27.2088 26.0308 27.3473 24.7846 26.9319 24.5077Z" fill="url(#paint5_linear_4_1887)"/>
<path d="M24.4395 6.50769H24.301C23.8857 6.78461 24.0241 8.03077 24.8549 9.41538C25.5472 10.8 26.5164 11.6308 26.9318 11.4923C27.3472 11.2154 27.2087 9.96923 26.378 8.58461C25.8241 7.33846 24.9933 6.50769 24.4395 6.50769Z" fill="url(#paint6_linear_4_1887)"/>
<path d="M17.378 25.8923C17.9318 26.7231 19.4549 26.7231 20.8395 26.0308C22.2242 25.2 22.9165 23.9538 22.5011 22.9846C22.2241 22.5692 21.6703 22.2923 21.1165 22.2923C20.5626 22.2923 19.8703 22.4308 19.178 22.8461C17.6549 23.6769 16.9626 24.9231 17.378 25.8923Z" fill="url(#paint7_linear_4_1887)"/>
<path d="M20.7011 19.5231C21.6703 19.5231 22.3626 18.8307 22.3626 18C22.3626 17.1692 21.5319 16.4769 20.7011 16.4769C19.7319 16.4769 19.0396 17.1692 19.0396 18C19.0396 18.8307 19.7319 19.5231 20.7011 19.5231Z" fill="url(#paint8_linear_4_1887)"/>
<path d="M12.2551 26.8615C10.5936 26.8615 8.51664 27.2769 6.30125 28.2461C2.28587 29.9077 -0.483364 32.4 0.0704823 33.7846C0.624328 35.1692 4.36279 35.0307 8.51664 33.3692C12.532 31.7077 15.3013 29.2154 14.7474 27.8307C14.4705 27.2769 13.5013 26.8615 12.2551 26.8615Z" fill="url(#paint9_linear_4_1887)"/>
<path d="M21.6703 29.9077C20.7011 29.9077 19.178 30.4615 17.7934 31.4308C15.7165 32.9538 14.4703 34.7538 15.0242 35.5846C15.578 36.4154 17.7934 35.8615 19.8703 34.3385C21.9472 32.8154 23.1934 31.0154 22.6395 30.1846C22.5011 30.0461 22.0857 29.9077 21.6703 29.9077Z" fill="url(#paint10_linear_4_1887)"/>
<path d="M17.7934 4.56926C19.8703 6.09234 22.0857 6.64618 22.6395 5.81541C23.1934 4.98464 21.9472 3.18464 19.8703 1.66157C18.4857 0.692335 16.9626 0.138489 15.9934 0.138489C15.578 0.138489 15.1626 0.27695 15.0242 0.553873C14.4703 1.24618 15.7165 3.04618 17.7934 4.56926Z" fill="url(#paint11_linear_4_1887)"/>
<path d="M175.086 9.4154C174.532 9.00002 173.701 8.72309 172.871 8.58463C172.04 8.44617 171.209 8.30771 170.24 8.30771H164.563V27.6923H166.225V18.5539H170.655C171.348 18.5539 172.04 18.4154 172.871 18.2769C173.563 18.1385 174.255 17.8616 174.948 17.4462C175.501 17.0308 176.055 16.4769 176.471 15.9231C176.886 15.2308 177.025 14.4 177.025 13.4308C177.025 12.4616 176.886 11.6308 176.471 10.9385C176.194 10.2462 175.778 9.69232 175.086 9.4154ZM173.978 16.2C173.148 16.7539 172.04 17.0308 170.794 17.0308H166.363V9.69232H170.794C172.04 9.69232 173.148 9.96925 173.978 10.5231C174.809 11.0769 175.225 12.0462 175.225 13.2923C175.225 14.6769 174.809 15.6462 173.978 16.2Z" fill="#F4F4F4"/>
<path d="M187.686 18.4154C189.209 18.1385 190.317 17.5846 191.286 16.7539C192.117 15.9231 192.532 14.8154 192.532 13.4308C192.532 12.1846 192.255 11.3539 191.84 10.6616C191.424 9.96925 190.871 9.4154 190.178 9.13848C189.486 8.72309 188.655 8.58463 187.686 8.44617C186.717 8.30771 185.748 8.30771 184.778 8.30771H179.932V27.6923H181.594V18.5539H185.332L190.871 27.6923H192.948L187.271 18.4154H187.686ZM184.086 17.1692H181.594V9.69232H185.332C185.886 9.69232 186.578 9.69232 187.132 9.83079C187.686 9.96925 188.378 10.1077 188.794 10.3846C189.348 10.6616 189.763 11.0769 190.04 11.4923C190.317 12.0462 190.594 12.6 190.594 13.4308C190.594 14.4 190.317 15.0923 189.901 15.6462C189.486 16.2 188.932 16.4769 188.24 16.7539C187.548 17.0308 186.855 17.1692 186.163 17.1692C185.471 17.1692 184.778 17.1692 184.086 17.1692Z" fill="#F4F4F4"/>
<path d="M213.855 13.9846C213.301 12.7385 212.609 11.6308 211.778 10.8C210.947 9.96926 209.84 9.13849 208.593 8.7231C207.347 8.16926 205.963 7.89233 204.578 7.89233C203.055 7.89233 201.67 8.16926 200.563 8.7231C199.317 9.27695 198.209 9.96926 197.378 10.8C196.547 11.6308 195.717 12.7385 195.301 13.9846C194.747 15.2308 194.609 16.6154 194.609 18C194.609 19.3846 194.886 20.7693 195.301 22.0154C195.855 23.2616 196.547 24.3693 197.378 25.2C198.209 26.0308 199.317 26.8616 200.563 27.277C201.809 27.8308 203.193 28.1077 204.578 28.1077C206.101 28.1077 207.486 27.8308 208.593 27.277C209.84 26.7231 210.947 26.0308 211.778 25.2C212.609 24.3693 213.44 23.2616 213.855 22.0154C214.409 20.7693 214.547 19.3846 214.547 18C214.547 16.477 214.27 15.0923 213.855 13.9846ZM212.193 21.3231C211.778 22.4308 211.224 23.2616 210.532 24.0923C209.84 24.9231 208.87 25.477 207.901 25.8923C206.932 26.3077 205.686 26.5846 204.578 26.5846C203.332 26.5846 202.224 26.3077 201.255 25.8923C200.286 25.477 199.317 24.7846 198.624 24.0923C197.932 23.2616 197.378 22.4308 196.963 21.3231C196.547 20.2154 196.409 19.1077 196.409 18C196.409 16.7539 196.547 15.6462 196.963 14.677C197.378 13.5693 197.932 12.7385 198.624 11.9077C199.317 11.077 200.286 10.5231 201.255 10.1077C202.224 9.69233 203.47 9.41541 204.578 9.41541C205.824 9.41541 206.932 9.69233 207.901 10.1077C208.87 10.5231 209.84 11.2154 210.532 11.9077C211.224 12.7385 211.778 13.5693 212.193 14.677C212.609 15.7846 212.747 16.8923 212.747 18C212.747 19.1077 212.609 20.2154 212.193 21.3231Z" fill="#F4F4F4"/>
<path opacity="0.35" d="M152.517 0H151.409V36H152.517V0Z" fill="white"/>
<path d="M117.486 16.0615V13.4308H113.748V29.2154H117.486V22.2923C117.486 19.1077 119.148 16.8923 121.917 16.8923C122.332 16.8923 122.748 16.8923 122.886 17.0308V13.1538C122.886 13.1538 122.609 13.0154 122.194 13.0154C120.117 13.1538 118.317 14.2615 117.486 16.0615Z" fill="#F8F8F8"/>
<path d="M105.163 21.7385C105.163 24.3692 103.64 26.1692 101.424 26.1692C99.209 26.1692 97.9629 24.6462 97.9629 22.2923V13.4308H94.0859V22.8462C94.0859 27 96.4398 29.4923 100.178 29.4923C102.394 29.4923 104.055 28.5231 105.163 27V29.0769H109.04V13.4308H105.163V21.7385Z" fill="#F8F8F8"/>
<path d="M140.47 13.4308H135.763L129.67 20.9077L136.317 29.2154H141.024L134.378 20.9077L140.47 13.4308Z" fill="#F8F8F8"/>
<path d="M129.255 6.78461H125.517V29.2154H129.255V6.78461Z" fill="#F8F8F8"/>
<path d="M45.7627 17.1692C47.5627 16.3385 48.532 14.6769 48.532 12.7385C48.532 8.99999 45.6243 6.78461 41.332 6.78461H33.5781V29.2154H41.8858C46.8704 29.2154 49.9166 26.7231 49.9166 22.7077C49.9166 19.9385 48.3935 18.1385 45.7627 17.1692ZM37.455 9.96922H41.1935C43.4089 9.96922 44.7935 11.0769 44.7935 13.0154C44.7935 14.9538 43.2704 16.0615 41.1935 16.0615H37.455V9.96922ZM41.7474 25.8923H37.3166V19.2461H41.6089C44.1012 19.2461 45.9012 20.4923 45.9012 22.5692C46.0397 24.6461 44.3781 25.8923 41.7474 25.8923Z" fill="#F8F8F8"/>
<path d="M58.0859 23.6769V16.6154H62.2397V13.4308H57.9474V9.41537H57.809L51.3013 16.0615V16.6154H54.209V24.3692C54.209 27.6923 56.1474 29.6308 59.332 29.6308C60.7167 29.6308 61.5474 29.3538 62.2397 29.0769V25.7538C61.8243 26.1692 61.132 26.1692 60.4397 26.1692C58.7782 26.1692 58.0859 25.4769 58.0859 23.6769Z" fill="#F8F8F8"/>
<path d="M77.332 10.2461H83.5628V29.2154H87.5782V10.2461H93.9474V6.78461H77.332V10.2461Z" fill="#F8F8F8"/>
<path d="M68.1935 21.3231C68.1935 18.5538 70.4089 16.4769 73.1782 16.4769C74.5628 16.4769 75.8089 16.8923 77.1935 17.8615V14.1231C75.9474 13.4308 74.4243 13.0154 72.9012 13.0154C67.9166 13.0154 64.4551 16.4769 64.4551 21.4615C64.4551 26.1692 67.9166 29.7692 72.9012 29.7692C74.5628 29.7692 75.9474 29.3538 77.332 28.6615V24.9231C76.2243 25.6154 74.8397 26.3077 73.3166 26.3077C70.4089 26.3077 68.1935 24.0923 68.1935 21.3231Z" fill="#F8F8F8"/>
<defs>
<linearGradient id="paint0_linear_4_1887" x1="-0.0152674" y1="18.0199" x2="27.0256" y2="18.0199" gradientUnits="userSpaceOnUse">
<stop stop-color="#003AFF"/>
<stop offset="0.2471" stop-color="#0067FF"/>
<stop offset="0.8035" stop-color="#02D6FF"/>
<stop offset="1" stop-color="#02FFFF"/>
</linearGradient>
<linearGradient id="paint1_linear_4_1887" x1="-0.0152991" y1="14.514" x2="27.0256" y2="14.514" gradientUnits="userSpaceOnUse">
<stop stop-color="#003AFF"/>
<stop offset="0.2471" stop-color="#0067FF"/>
<stop offset="0.8035" stop-color="#02D6FF"/>
<stop offset="1" stop-color="#02FFFF"/>
</linearGradient>
<linearGradient id="paint2_linear_4_1887" x1="-0.0154546" y1="5.12826" x2="27.0255" y2="5.12826" gradientUnits="userSpaceOnUse">
<stop stop-color="#003AFF"/>
<stop offset="0.2471" stop-color="#0067FF"/>
<stop offset="0.8035" stop-color="#02D6FF"/>
<stop offset="1" stop-color="#02FFFF"/>
</linearGradient>
<linearGradient id="paint3_linear_4_1887" x1="-0.0149509" y1="21.4786" x2="27.026" y2="21.4786" gradientUnits="userSpaceOnUse">
<stop stop-color="#003AFF"/>
<stop offset="0.2471" stop-color="#0067FF"/>
<stop offset="0.8035" stop-color="#02D6FF"/>
<stop offset="1" stop-color="#02FFFF"/>
</linearGradient>
<linearGradient id="paint4_linear_4_1887" x1="-0.0151173" y1="11.6055" x2="27.0258" y2="11.6055" gradientUnits="userSpaceOnUse">
<stop stop-color="#003AFF"/>
<stop offset="0.2471" stop-color="#0067FF"/>
<stop offset="0.8035" stop-color="#02D6FF"/>
<stop offset="1" stop-color="#02FFFF"/>
</linearGradient>
<linearGradient id="paint5_linear_4_1887" x1="-0.0153503" y1="27.044" x2="27.0256" y2="27.044" gradientUnits="userSpaceOnUse">
<stop stop-color="#003AFF"/>
<stop offset="0.2471" stop-color="#0067FF"/>
<stop offset="0.8035" stop-color="#02D6FF"/>
<stop offset="1" stop-color="#02FFFF"/>
</linearGradient>
<linearGradient id="paint6_linear_4_1887" x1="-0.0154356" y1="8.96429" x2="27.0255" y2="8.96429" gradientUnits="userSpaceOnUse">
<stop stop-color="#003AFF"/>
<stop offset="0.2471" stop-color="#0067FF"/>
<stop offset="0.8035" stop-color="#02D6FF"/>
<stop offset="1" stop-color="#02FFFF"/>
</linearGradient>
<linearGradient id="paint7_linear_4_1887" x1="-0.0153983" y1="24.387" x2="27.0255" y2="24.387" gradientUnits="userSpaceOnUse">
<stop stop-color="#003AFF"/>
<stop offset="0.2471" stop-color="#0067FF"/>
<stop offset="0.8035" stop-color="#02D6FF"/>
<stop offset="1" stop-color="#02FFFF"/>
</linearGradient>
<linearGradient id="paint8_linear_4_1887" x1="-0.0153915" y1="18.0198" x2="27.0255" y2="18.0198" gradientUnits="userSpaceOnUse">
<stop stop-color="#003AFF"/>
<stop offset="0.2471" stop-color="#0067FF"/>
<stop offset="0.8035" stop-color="#02D6FF"/>
<stop offset="1" stop-color="#02FFFF"/>
</linearGradient>
<linearGradient id="paint9_linear_4_1887" x1="-0.0152251" y1="30.88" x2="27.0257" y2="30.88" gradientUnits="userSpaceOnUse">
<stop stop-color="#003AFF"/>
<stop offset="0.2471" stop-color="#0067FF"/>
<stop offset="0.8035" stop-color="#02D6FF"/>
<stop offset="1" stop-color="#02FFFF"/>
</linearGradient>
<linearGradient id="paint10_linear_4_1887" x1="-0.0153958" y1="32.9395" x2="27.0255" y2="32.9395" gradientUnits="userSpaceOnUse">
<stop stop-color="#003AFF"/>
<stop offset="0.2471" stop-color="#0067FF"/>
<stop offset="0.8035" stop-color="#02D6FF"/>
<stop offset="1" stop-color="#02FFFF"/>
</linearGradient>
<linearGradient id="paint11_linear_4_1887" x1="-0.0153958" y1="3.06877" x2="27.0255" y2="3.06877" gradientUnits="userSpaceOnUse">
<stop stop-color="#003AFF"/>
<stop offset="0.2471" stop-color="#0067FF"/>
<stop offset="0.8035" stop-color="#02D6FF"/>
<stop offset="1" stop-color="#02FFFF"/>
</linearGradient>
</defs>
</svg>
