<svg width="13" height="9" viewBox="0 0 13 9" fill="none" xmlns="http://www.w3.org/2000/svg">
<path d="M12.9497 1.60564C12.9124 1.71768 12.8937 1.84838 12.8377 1.94175C12.7443 2.1098 12.6323 2.29653 12.5016 2.44591C10.4849 4.48123 8.4496 6.51654 6.41428 8.55186C5.81676 9.14939 4.97649 9.13071 4.37896 8.55186C3.37064 7.56221 2.38099 6.55389 1.39134 5.56424C0.999216 5.15344 0.849835 4.68663 1.01789 4.12645C1.18594 3.58494 1.57807 3.24883 2.13825 3.15547C2.56772 3.08078 2.97852 3.21149 3.29595 3.51025C3.65073 3.84636 3.98684 4.18246 4.32295 4.51857C4.58436 4.77999 4.84578 5.04141 5.1072 5.30282C5.3126 5.50822 5.49932 5.50822 5.70472 5.30282C7.31057 3.69698 8.91642 2.09113 10.5223 0.466609C10.765 0.223864 11.0451 0.0744832 11.3812 0.0184652C12.1094 -0.074898 12.8003 0.410591 12.931 1.13882C12.931 1.1575 12.9497 1.19484 12.9497 1.21351C12.9497 1.3629 12.9497 1.4936 12.9497 1.60564Z" fill="white"/>
</svg>
